<svg width="603" height="66" viewBox="0 0 603 66" fill="none" xmlns="http://www.w3.org/2000/svg">
    <g opacity="0.7">
        <path opacity="0.8" d="M560.556 11.9156L594.675 31.6139L560.556 51.3121L560.556 11.9156Z" fill="url(#paint0_linear_10_2)"/>
        <path opacity="0.5" d="M534.653 19.3079L565.928 37.3646L534.653 55.4213L534.653 19.3079Z" fill="url(#paint1_linear_10_2)"/>
        <path opacity="0.3" d="M510.899 26.5107L536.487 41.2844L510.899 56.058L510.899 26.5107Z" fill="url(#paint2_linear_10_2)"/>
    </g>
    <path opacity="0.9" d="M596.964 24.0466L571.964 9.61283V38.4803L596.964 24.0466ZM464.281 26.5466H574.464V21.5466H464.281V26.5466Z" fill="url(#paint3_linear_10_2)"/>
    <path opacity="0.8" d="M564.362 39.2103L539.362 24.7766L539.362 53.6441L564.362 39.2103ZM405.901 41.7103L541.862 41.7103L541.862 36.7103L405.901 36.7103L405.901 41.7103Z" fill="url(#paint4_linear_10_2)"/>
    <g opacity="0.5">
        <path opacity="0.8" d="M348.765 45.148L190.304 45.148" stroke="url(#paint5_linear_10_2)" stroke-width="5"/>
        <path opacity="0.8" d="M348.765 37.5662L99.3222 37.5661" stroke="url(#paint6_linear_10_2)" stroke-width="5"/>
        <path opacity="0.8" d="M360.896 22.4025L113.728 22.4025" stroke="url(#paint7_linear_10_2)" stroke-width="5"/>
        <path opacity="0.8" d="M448.087 29.9843L200.919 29.9843" stroke="url(#paint8_linear_10_2)" stroke-width="5"/>
        <path opacity="0.8" d="M375.302 37.5662L350.302 23.1324L350.302 51.9999L375.302 37.5662ZM99.3223 40.0662L352.802 40.0662L352.802 35.0662L99.3223 35.0662L99.3223 40.0662Z" fill="url(#paint9_linear_10_2)"/>
        <path d="M187.272 45.148L60.6548 45.148" stroke="url(#paint10_linear_10_2)" stroke-width="5"/>
        <path opacity="0.8" d="M126.617 22.4025L4.33326e-05 22.4025" stroke="url(#paint11_linear_10_2)" stroke-width="5"/>
    </g>
    <defs>
        <linearGradient id="paint0_linear_10_2" x1="560.556" y1="11.9156" x2="583.302" y2="51.3121" gradientUnits="userSpaceOnUse">
            <stop stop-color="#5C96D7"/>
            <stop offset="1" stop-color="#080A37"/>
        </linearGradient>
        <linearGradient id="paint1_linear_10_2" x1="534.653" y1="19.3079" x2="555.503" y2="55.4213" gradientUnits="userSpaceOnUse">
            <stop stop-color="#5C96D7"/>
            <stop offset="1" stop-color="#080A37"/>
        </linearGradient>
        <linearGradient id="paint2_linear_10_2" x1="510.899" y1="26.5107" x2="527.958" y2="56.058" gradientUnits="userSpaceOnUse">
            <stop stop-color="#5C96D7"/>
            <stop offset="1" stop-color="#080A37"/>
        </linearGradient>
        <linearGradient id="paint3_linear_10_2" x1="464.281" y1="24.5466" x2="596.964" y2="24.5466" gradientUnits="userSpaceOnUse">
            <stop stop-color="#080A37"/>
            <stop offset="1" stop-color="#5C96D7"/>
        </linearGradient>
        <linearGradient id="paint4_linear_10_2" x1="405.901" y1="39.7103" x2="564.362" y2="39.7103" gradientUnits="userSpaceOnUse">
            <stop stop-color="#080A37"/>
            <stop offset="1" stop-color="#5C96D7"/>
        </linearGradient>
        <linearGradient id="paint5_linear_10_2" x1="348.765" y1="45.648" x2="190.304" y2="45.648" gradientUnits="userSpaceOnUse">
            <stop stop-color="#080A37"/>
            <stop offset="0.53" stop-color="#5C96D7"/>
            <stop offset="1"/>
        </linearGradient>
        <linearGradient id="paint6_linear_10_2" x1="348.765" y1="37.0662" x2="99.3222" y2="37.0661" gradientUnits="userSpaceOnUse">
            <stop stop-color="#080A37"/>
            <stop offset="0.53" stop-color="#5C96D7"/>
            <stop offset="1"/>
        </linearGradient>
        <linearGradient id="paint7_linear_10_2" x1="360.896" y1="21.9025" x2="113.728" y2="21.9025" gradientUnits="userSpaceOnUse">
            <stop stop-color="#080A37"/>
            <stop offset="0.53" stop-color="#5C96D7"/>
            <stop offset="1"/>
        </linearGradient>
        <linearGradient id="paint8_linear_10_2" x1="448.087" y1="29.4843" x2="200.919" y2="29.4843" gradientUnits="userSpaceOnUse">
            <stop stop-color="#080A37"/>
            <stop offset="0.53" stop-color="#5C96D7"/>
            <stop offset="1"/>
        </linearGradient>
        <linearGradient id="paint9_linear_10_2" x1="99.3223" y1="38.0662" x2="375.302" y2="38.0662" gradientUnits="userSpaceOnUse">
            <stop stop-color="#080A37"/>
            <stop offset="1" stop-color="#5C96D7"/>
        </linearGradient>
        <linearGradient id="paint10_linear_10_2" x1="187.272" y1="44.648" x2="60.6548" y2="44.648" gradientUnits="userSpaceOnUse">
            <stop stop-color="#080A37"/>
            <stop offset="0.333333" stop-color="#324F86"/>
            <stop offset="0.666667" stop-color="#5C96D7"/>
            <stop offset="0.865"/>
            <stop offset="0.985" stop-opacity="0"/>
        </linearGradient>
        <linearGradient id="paint11_linear_10_2" x1="126.617" y1="21.9025" x2="4.57764e-05" y2="21.9025" gradientUnits="userSpaceOnUse">
            <stop stop-color="#080A37" stop-opacity="0"/>
            <stop offset="0.08" stop-color="#080A37"/>
            <stop offset="0.625" stop-color="#5C96D7"/>
            <stop offset="0.955"/>
            <stop offset="1" stop-opacity="0"/>
        </linearGradient>
    </defs>
</svg>
