<svg
        xmlns="http://www.w3.org/2000/svg"
        xmlns:xlink="http://www.w3.org/1999/xlink"
        width="126px" height="126px" viewBox="60 0 86 120">
    <path fill-rule="evenodd"  fill="rgb(35, 55, 107)"
          d="M-0.000,41.000 C39.514,41.201 92.748,46.085 113.628,9.696 C113.601,7.998 114.960,7.756 115.000,7.000 C115.045,6.158 115.932,6.067 117.000,6.000 C117.998,5.937 116.930,5.694 118.000,6.000 C118.910,6.260 119.479,6.077 120.000,7.000 C121.139,9.017 120.794,13.185 116.434,19.105 C89.858,54.897 38.712,45.006 -0.000,47.000 C-0.000,45.000 -0.000,43.000 -0.000,41.000 "/>
    <path fill-rule="evenodd"  fill="rgb(35, 55, 107)"
          d="M125.075,71.020 L104.440,82.934 L104.440,59.107 L125.075,71.020 Z"/>
    <path fill-rule="evenodd"  fill="rgb(35, 55, 107)"
          d="M125.683,0.679 L122.691,24.318 L103.715,9.907 L125.683,0.679 Z"/>
    <path fill-rule="evenodd"  fill="rgb(35, 55, 107)"
          d="M-0.000,68.000 L120.000,68.000 L120.000,74.000 L-0.000,74.000 L-0.000,68.000 Z"/>
</svg>