<svg width="39" height="26" viewBox="0 0 39 26" fill="none" xmlns="http://www.w3.org/2000/svg">
    <path fill-rule="evenodd" clip-rule="evenodd" d="M0 13.2504C11.7995 13.309 27.696 14.7332 33.9311 4.12185C33.9231 3.6267 34.3289 3.55613 34.3408 3.33567C34.3543 3.09014 34.6191 3.0636 34.9381 3.04407C35.2361 3.02569 34.9172 2.95483 35.2367 3.04407C35.5084 3.11988 35.6783 3.06652 35.8339 3.33567C36.174 3.92385 36.071 5.13927 34.769 6.86559C26.833 17.3028 11.56 14.4185 0 15C0 14.4168 0 13.8336 0 13.2504Z" fill="#324F86" stroke="#324F86" stroke-width="0.8"/>
    <path fill-rule="evenodd" clip-rule="evenodd" d="M37.8162 21.5006L31.5772 24.9728V18.0286L37.8162 21.5006Z" fill="#181A51" stroke="#181A51" stroke-width="0.8"/>
    <path fill-rule="evenodd" clip-rule="evenodd" d="M38 1L37.0954 7.88948L31.358 3.68946L38 1Z" fill="#324F86" stroke="#324F86" stroke-width="0.8"/>
    <path fill-rule="evenodd" clip-rule="evenodd" d="M0 20.6204H36.2818V22.3691H0V20.6204Z" fill="#181A51" stroke="#181A51" stroke-width="0.8"/>
</svg>
