<svg width="218" height="35" viewBox="0 0 218 35" fill="none" xmlns="http://www.w3.org/2000/svg">
    <g clip-path="url(#clip0_1_13)">
        <path fill-rule="evenodd" clip-rule="evenodd" d="M0 22.2504C11.7995 22.309 27.696 23.7332 33.9311 13.1218C33.9231 12.6267 34.3289 12.5561 34.3408 12.3357C34.3543 12.0901 34.6191 12.0636 34.9381 12.0441C35.2361 12.0257 34.9172 11.9548 35.2367 12.0441C35.5084 12.1199 35.6783 12.0665 35.8339 12.3357C36.174 12.9238 36.071 14.1393 34.769 15.8656C26.833 26.3028 11.56 23.4185 0 24C0 23.4168 0 22.8336 0 22.2504Z" fill="#5C96D7" stroke="#5C96D7" stroke-width="0.8"/>
        <path fill-rule="evenodd" clip-rule="evenodd" d="M37.8162 30.5006L31.5772 33.9728V27.0286L37.8162 30.5006Z" fill="#5C96D7" stroke="#5C96D7" stroke-width="0.8"/>
        <path fill-rule="evenodd" clip-rule="evenodd" d="M38 10L37.0954 16.8895L31.358 12.6895L38 10Z" fill="#5C96D7" stroke="#5C96D7" stroke-width="0.8"/>
        <path fill-rule="evenodd" clip-rule="evenodd" d="M0 29.6204H36.2818V31.3691H0V29.6204Z" fill="#5C96D7" stroke="#5C96D7" stroke-width="0.8"/>
        <path fill-rule="evenodd" clip-rule="evenodd" d="M82.48 12.9275L77.4053 15.8552V10L82.48 12.9275Z" fill="url(#paint0_linear_1_13)"/>
        <path fill-rule="evenodd" clip-rule="evenodd" d="M150.844 34.5201V23.7713C150.844 22.7493 150.7 22.0163 150.412 21.5723C150.124 21.1282 149.652 20.9063 148.996 20.9063C147.602 20.9063 146.036 21.6084 144.298 23.0125L144.339 34.4535H141.32L141.207 21.1075H138.404V18.2422H144.298V20.2092C146.248 18.7535 148.081 18.0255 149.799 18.0255C151.223 18.0255 152.276 18.4746 152.958 19.3729C153.64 20.2712 153.981 21.6704 153.981 23.5701L154 34.4535L150.844 34.5201ZM130.931 32.646C129.092 34.0813 127.344 34.7988 125.688 34.7988C124.193 34.7988 123.089 34.3445 122.377 33.4357C121.665 32.5275 121.309 31.0197 121.309 28.9135V21.1075H119.082V18.2422H124.445V29.5795C124.445 30.4158 124.594 31.0302 124.893 31.4224C125.19 31.815 125.683 32.0109 126.37 32.0109C127.774 32.0109 129.294 31.3141 130.931 29.9202V21.1075H128.112V18.2422H134.067V31.6702H136.794V34.5201H130.931V32.646ZM112.866 21.9438C112.037 22.3984 111.489 23.085 111.222 24.0037C110.954 24.9227 110.82 26.2494 110.82 27.984L110.827 34.4535H107.808L107.714 21.1075H104.517V18.2422H110.199V21.9284C110.835 20.4724 111.626 19.4581 112.57 18.885C113.515 18.3119 114.866 18.0255 116.623 18.0255H117.336V21.2624H116.654C114.957 21.2624 113.694 21.4896 112.866 21.9438ZM94.5583 32.2433C95.6089 32.2433 96.5835 32.0214 97.4826 31.5773C98.3817 31.1336 99.1343 30.4519 99.7402 29.5329L102.498 30.8028C101.629 32.1865 100.49 33.232 99.0812 33.939C97.6722 34.6463 96.1391 35 94.4825 35C92.7652 35 91.24 34.6334 89.9068 33.9005C88.5732 33.1675 87.5353 32.1452 86.7929 30.8339C86.0505 29.5227 85.6791 28.046 85.6791 26.4043C85.6791 24.7731 86.0453 23.3017 86.7778 21.9904C87.5099 20.6792 88.5125 19.6543 89.7854 18.9162C91.0582 18.178 92.4621 17.8086 93.9976 17.8086C95.6744 17.8086 97.1366 18.1882 98.3844 18.947C99.6316 19.7059 100.614 20.79 101.331 22.1993C102.048 23.6087 102.438 25.2739 102.498 27.1943H89.149C89.3407 28.7534 89.9318 29.9847 90.9218 30.8882C91.9117 31.7918 93.1239 32.2433 94.5583 32.2433ZM99.2101 24.902C98.9169 23.5701 98.2956 22.499 97.3464 21.6883C96.3966 20.8779 95.3007 20.4724 94.0583 20.4724C92.8763 20.4724 91.8408 20.8779 90.9523 21.6883C90.0631 22.499 89.4922 23.5701 89.2398 24.902H99.2101ZM75.6147 31.6702H78.0994V21.1075H75.6147V18.2422H81.2359V31.6702H83.6602V34.5201H75.6147V31.6702ZM78.2057 14.1224C80.2604 16.2804 78.279 14.1995 78.2057 14.1224ZM69.6562 21.9438C68.8277 22.3984 68.2798 23.085 68.012 24.0037C67.7445 24.9227 67.6107 26.2494 67.6107 27.984V31.6702L67.6539 34.4535H64.6348L64.5044 21.1075H61.3072V18.2422H66.9894V21.9284C67.6258 20.4724 68.4159 19.4581 69.3606 18.885C70.305 18.3119 71.6563 18.0255 73.4137 18.0255H74.1259V21.2624H73.4442C71.7472 21.2624 70.4843 21.4896 69.6562 21.9438ZM57.9928 14.086L57.8944 14.0915H49.3335V21.0146H56.7127V23.9263H49.3335L49.2374 34.7621L45.8787 34.6942V14.0915H43L43.8031 11H61.9176L60.71 14.086H57.9928Z" fill="#5C96D7"/>
    </g>
    <defs>
        <linearGradient id="paint0_linear_1_13" x1="77.4053" y1="12.9276" x2="82.48" y2="12.9276" gradientUnits="userSpaceOnUse">
            <stop stop-color="#5C96D7"/>
            <stop offset="1" stop-color="#7CAFE7"/>
        </linearGradient>
        <clipPath id="clip0_1_13">
            <rect width="218" height="35" fill="white"/>
        </clipPath>
    </defs>
</svg>
