<svg width="218" height="35" viewBox="0 0 218 35" fill="none" xmlns="http://www.w3.org/2000/svg">
    <path fill-rule="evenodd" clip-rule="evenodd" d="M0 17.7059C16.2837 17.7887 38.2213 19.7997 46.8259 4.81601C46.8148 4.11683 47.3748 4.01718 47.3913 3.70589C47.4098 3.35918 47.7754 3.32171 48.2155 3.29413C48.6268 3.26818 48.1867 3.16813 48.6276 3.29413C49.0026 3.40118 49.2371 3.32583 49.4518 3.70589C49.9212 4.53642 49.779 6.25266 47.9823 8.6903C37.0303 23.4282 15.9531 19.3554 0 20.1765C0 19.353 0 18.5294 0 17.7059Z" fill="#5C96D7"/>
    <path fill-rule="evenodd" clip-rule="evenodd" d="M51.5432 30.0671L43.0396 34.9728V25.1617L51.5432 30.0671Z" fill="#5C96D7"/>
    <path fill-rule="evenodd" clip-rule="evenodd" d="M51.7937 1.10313L50.5607 10.8368L42.7408 4.9029L51.7937 1.10313Z" fill="#5C96D7"/>
    <path fill-rule="evenodd" clip-rule="evenodd" d="M0 28.8235H49.4518V31.2941H0V28.8235Z" fill="#5C96D7"/>
    <path fill-rule="evenodd" clip-rule="evenodd" d="M105.165 10.2934L99.456 13.5871V7.00002L105.165 10.2934Z" fill="#5C96D7"/>
    <path fill-rule="evenodd" clip-rule="evenodd" d="M172.787 31.9873V21.5573C172.787 20.5655 172.641 19.8544 172.348 19.4235C172.055 18.9925 171.574 18.7772 170.905 18.7772C169.486 18.7772 167.892 19.4585 166.124 20.821L166.165 31.9226H163.091L162.977 18.9725H160.123V16.1921H166.124V18.1008C168.108 16.6883 169.975 15.9819 171.723 15.9819C173.173 15.9819 174.245 16.4176 174.939 17.2893C175.633 18.161 175.98 19.5187 175.98 21.3621L176 31.9226L172.787 31.9873ZM152.515 30.1688C150.643 31.5615 148.864 32.2577 147.178 32.2577C145.656 32.2577 144.532 31.8169 143.808 30.9351C143.083 30.0538 142.72 28.5907 142.72 26.547V18.9725H140.453V16.1921H145.913V27.1932C145.913 28.0047 146.064 28.6009 146.368 28.9815C146.671 29.3624 147.172 29.5525 147.872 29.5525C149.301 29.5525 150.849 28.8764 152.515 27.5238V18.9725H149.646V16.1921H155.708V29.2219H158.484V31.9873H152.515V30.1688ZM134.125 19.784C133.281 20.2251 132.723 20.8913 132.451 21.7828C132.178 22.6745 132.042 23.9619 132.042 25.645L132.049 31.9226H128.976L128.88 18.9725H125.625V16.1921H131.41V19.769C132.058 18.3562 132.862 17.3719 133.824 16.8159C134.785 16.2598 136.161 15.9819 137.95 15.9819H138.675V19.1228H137.981C136.253 19.1228 134.968 19.3432 134.125 19.784ZM115.487 29.778C116.557 29.778 117.549 29.5627 118.464 29.1318C119.38 28.7012 120.146 28.0397 120.763 27.148L123.57 28.3802C122.685 29.7229 121.526 30.7374 120.092 31.4234C118.657 32.1098 117.097 32.4529 115.41 32.4529C113.662 32.4529 112.109 32.0972 110.752 31.386C109.394 30.6748 108.338 29.6828 107.582 28.4104C106.826 27.1381 106.448 25.7052 106.448 24.1122C106.448 22.5293 106.821 21.1015 107.567 19.8292C108.312 18.5569 109.333 17.5624 110.628 16.8461C111.924 16.1298 113.353 15.7714 114.917 15.7714C116.624 15.7714 118.112 16.1397 119.382 16.8761C120.652 17.6124 121.652 18.6644 122.382 20.0319C123.112 21.3995 123.508 23.0153 123.57 24.8788H109.98C110.176 26.3916 110.777 27.5863 111.785 28.4631C112.793 29.3399 114.027 29.778 115.487 29.778ZM120.223 22.6545C119.924 21.3621 119.292 20.3227 118.326 19.536C117.359 18.7497 116.243 18.3562 114.978 18.3562C113.775 18.3562 112.721 18.7497 111.816 19.536C110.911 20.3227 110.33 21.3621 110.073 22.6545H120.223ZM96.2023 29.2219H98.7318V18.9725H96.2023V16.1921H101.925V29.2219H104.393V31.9873H96.2023V29.2219ZM98.84 12.1945C98.9147 12.2694 100.932 14.2886 98.84 12.1945V12.1945ZM90.1365 19.784C89.2931 20.2251 88.7353 20.8913 88.4627 21.7828C88.1903 22.6745 88.0542 23.9619 88.0542 25.645V29.2219L88.0981 31.9226H85.0246L84.8919 18.9725H81.637V16.1921H87.4217V19.769C88.0696 18.3562 88.8739 17.3719 89.8356 16.8159C90.797 16.2598 92.1727 15.9819 93.9617 15.9819H94.6868V19.1228H93.9928C92.2652 19.1228 90.9795 19.3432 90.1365 19.784ZM78.1628 12.1646H69.4476V18.8824H76.9598V21.7076H69.4476L69.3498 32.2221L65.9306 32.1562V12.1646H63V9.33931H81.0319V15.9517H78.1628V12.1646Z" fill="#5C96D7"/>
</svg>
